<mxfile host="65bd71144e">
    <diagram id="sIaQDca6uQB8TFhKYTGz" name="Страница 1">
        <mxGraphModel dx="1204" dy="403" grid="1" gridSize="10" guides="1" tooltips="1" connect="1" arrows="1" fold="1" page="1" pageScale="1" pageWidth="827" pageHeight="1169" math="0" shadow="0">
            <root>
                <mxCell id="0"/>
                <mxCell id="1" parent="0"/>
                <mxCell id="5" value="" style="edgeStyle=none;html=1;fontFamily=Courier New;fontSize=20;" edge="1" parent="1" source="2" target="4">
                    <mxGeometry relative="1" as="geometry"/>
                </mxCell>
                <mxCell id="2" value="Начало" style="ellipse;whiteSpace=wrap;html=1;fontFamily=Courier New;fontSize=20;" vertex="1" parent="1">
                    <mxGeometry x="320" y="20" width="400" height="60" as="geometry"/>
                </mxCell>
                <mxCell id="3" value="Блок-схема функции, выводящей массив в консоль" style="text;html=1;strokeColor=none;fillColor=none;align=center;verticalAlign=middle;whiteSpace=wrap;rounded=0;fontFamily=Courier New;fontSize=20;" vertex="1" parent="1">
                    <mxGeometry x="10" y="10" width="230" height="90" as="geometry"/>
                </mxCell>
                <mxCell id="7" value="" style="edgeStyle=none;html=1;fontFamily=Courier New;fontSize=20;" edge="1" parent="1" source="4" target="6">
                    <mxGeometry relative="1" as="geometry"/>
                </mxCell>
                <mxCell id="4" value="Получение массива" style="shape=parallelogram;perimeter=parallelogramPerimeter;whiteSpace=wrap;html=1;fixedSize=1;fontFamily=Courier New;fontSize=20;" vertex="1" parent="1">
                    <mxGeometry x="340" y="105" width="360" height="60" as="geometry"/>
                </mxCell>
                <mxCell id="10" value="" style="edgeStyle=none;html=1;fontFamily=Courier New;fontSize=20;" edge="1" parent="1" source="6" target="9">
                    <mxGeometry relative="1" as="geometry"/>
                </mxCell>
                <mxCell id="6" value="Вывод в консоль символа '['" style="rounded=0;whiteSpace=wrap;html=1;fontFamily=Courier New;fontSize=20;" vertex="1" parent="1">
                    <mxGeometry x="340" y="200" width="360" height="60" as="geometry"/>
                </mxCell>
                <mxCell id="8" value="Функция призвана не только вывести массив в консоль, но и сделать это красиво" style="text;html=1;strokeColor=none;fillColor=none;align=center;verticalAlign=middle;whiteSpace=wrap;rounded=0;fontFamily=Courier New;fontSize=20;" vertex="1" parent="1">
                    <mxGeometry x="10" y="175.5" width="290" height="105" as="geometry"/>
                </mxCell>
                <mxCell id="13" value="" style="edgeStyle=none;html=1;fontFamily=Courier New;fontSize=20;" edge="1" parent="1" source="9" target="12">
                    <mxGeometry relative="1" as="geometry"/>
                </mxCell>
                <mxCell id="16" style="edgeStyle=none;html=1;exitX=1;exitY=0.5;exitDx=0;exitDy=0;entryX=0.5;entryY=0;entryDx=0;entryDy=0;fontFamily=Courier New;fontSize=20;" edge="1" parent="1" source="9" target="15">
                    <mxGeometry relative="1" as="geometry">
                        <Array as="points">
                            <mxPoint x="730" y="323"/>
                            <mxPoint x="730" y="510"/>
                            <mxPoint x="520" y="510"/>
                        </Array>
                    </mxGeometry>
                </mxCell>
                <mxCell id="9" value="Цикл for для всех элементов, кроме последнего" style="shape=hexagon;perimeter=hexagonPerimeter2;whiteSpace=wrap;html=1;fixedSize=1;fontFamily=Courier New;fontSize=20;" vertex="1" parent="1">
                    <mxGeometry x="340" y="283" width="360" height="80" as="geometry"/>
                </mxCell>
                <mxCell id="11" value="Конец цикла" style="text;html=1;strokeColor=none;fillColor=none;align=center;verticalAlign=middle;whiteSpace=wrap;rounded=0;fontFamily=Courier New;fontSize=20;" vertex="1" parent="1">
                    <mxGeometry x="730" y="270" width="70" height="47" as="geometry"/>
                </mxCell>
                <mxCell id="14" style="edgeStyle=none;html=1;entryX=0;entryY=0.5;entryDx=0;entryDy=0;fontFamily=Courier New;fontSize=20;" edge="1" parent="1" source="12" target="9">
                    <mxGeometry relative="1" as="geometry">
                        <Array as="points">
                            <mxPoint x="520" y="500"/>
                            <mxPoint x="320" y="500"/>
                            <mxPoint x="320" y="320"/>
                        </Array>
                    </mxGeometry>
                </mxCell>
                <mxCell id="12" value="Вывод в консоль текущего элемента вместе с разделяющими символами" style="rounded=0;whiteSpace=wrap;html=1;fontFamily=Courier New;fontSize=20;" vertex="1" parent="1">
                    <mxGeometry x="340" y="396" width="360" height="70" as="geometry"/>
                </mxCell>
                <mxCell id="18" value="" style="edgeStyle=none;html=1;fontFamily=Courier New;fontSize=20;" edge="1" parent="1" source="15" target="17">
                    <mxGeometry relative="1" as="geometry"/>
                </mxCell>
                <mxCell id="15" value="Вывод в консоль последнего элемента с символом ']'" style="rounded=0;whiteSpace=wrap;html=1;fontFamily=Courier New;fontSize=20;" vertex="1" parent="1">
                    <mxGeometry x="340" y="540" width="360" height="60" as="geometry"/>
                </mxCell>
                <mxCell id="17" value="Конец" style="ellipse;whiteSpace=wrap;html=1;fontFamily=Courier New;fontSize=20;" vertex="1" parent="1">
                    <mxGeometry x="320" y="640" width="400" height="80" as="geometry"/>
                </mxCell>
            </root>
        </mxGraphModel>
    </diagram>
</mxfile>